<svg width="180" height="53" viewBox="0 0 180 53" fill="none" xmlns="http://www.w3.org/2000/svg">
<path d="M179 46.503C179 49.2742 176.709 51.5189 173.874 51.5189H6.13243C3.2995 51.5189 1 49.2742 1 46.503V6.5035C1 3.73367 3.2995 1.48113 6.13243 1.48113H173.873C176.709 1.48113 178.999 3.73367 178.999 6.5035L179 46.503Z" fill="black"/>
<path d="M173.333 1.54162C176.42 1.54162 178.932 3.9905 178.932 7V46C178.932 49.0095 176.42 51.4584 173.333 51.4584H6.66667C3.58 51.4584 1.06833 49.0095 1.06833 46V7C1.06833 3.9905 3.58 1.54162 6.66667 1.54162H173.333ZM173.333 0.500003H6.66667C3.00167 0.500003 0 3.42663 0 7V46C0 49.5734 3.00167 52.5 6.66667 52.5H173.333C176.998 52.5 180 49.5734 180 46V7C180 3.42663 176.998 0.500003 173.333 0.500003Z" fill="#A6A6A6"/>
<path d="M40.1707 26.2192C40.132 22.0293 43.6893 19.9909 43.852 19.896C41.8373 17.0321 38.7147 16.6408 37.6173 16.6096C34.9947 16.3405 32.4507 18.1397 31.1147 18.1397C29.752 18.1397 27.6947 16.6356 25.4773 16.6798C22.624 16.7227 19.9547 18.3334 18.4907 20.8346C15.4693 25.9345 17.7227 33.429 20.6173 37.5513C22.0653 39.5702 23.7573 41.8244 25.972 41.7451C28.1387 41.658 28.948 40.3983 31.5627 40.3983C34.1533 40.3983 34.9133 41.7451 37.172 41.6944C39.4973 41.658 40.9613 39.6664 42.3587 37.6293C44.032 35.3153 44.704 33.0364 44.7307 32.9194C44.676 32.9012 40.2147 31.2411 40.1707 26.2192Z" fill="white"/>
<path d="M35.904 13.8978C37.0693 12.4769 37.8667 10.5438 37.6453 8.58208C35.9587 8.65488 33.8493 9.71958 32.6347 11.1093C31.56 12.3339 30.6 14.3411 30.848 16.2287C32.7427 16.3665 34.688 15.2966 35.904 13.8978Z" fill="white"/>
<path d="M71.5267 41.4552H68.4987L66.84 36.3735H61.0747L59.4947 41.4552H56.5467L62.2587 24.1548H65.7867L71.5267 41.4552ZM66.34 34.2415L64.84 29.724C64.6813 29.2625 64.384 28.1757 63.9453 26.4649H63.892C63.7173 27.2007 63.436 28.2875 63.0493 29.724L61.576 34.2415H66.34V34.2415Z" fill="white"/>
<path d="M86.216 35.0644C86.216 37.186 85.628 38.863 84.452 40.0941C83.3987 41.19 82.0907 41.7373 80.5293 41.7373C78.844 41.7373 77.6333 41.1471 76.896 39.9667H76.8427V46.5382H74V33.0871C74 31.7533 73.964 30.3844 73.8947 28.9804H76.3947L76.5533 30.9577H76.6067C77.5547 29.4679 78.9933 28.7243 80.924 28.7243C82.4333 28.7243 83.6933 29.3054 84.7013 30.4689C85.712 31.6337 86.216 33.1651 86.216 35.0644ZM83.32 35.1658C83.32 33.9516 83.04 32.9506 82.4773 32.1628C81.8627 31.3412 81.0373 30.9304 80.0027 30.9304C79.3013 30.9304 78.664 31.1592 78.0947 31.6103C77.524 32.0653 77.1506 32.6594 76.976 33.3952C76.888 33.7384 76.844 34.0192 76.844 34.2402V36.3202C76.844 37.2276 77.1293 37.9933 77.7 38.6186C78.2707 39.2439 79.012 39.5559 79.924 39.5559C80.9947 39.5559 81.828 39.1529 82.424 38.3495C83.0213 37.5448 83.32 36.484 83.32 35.1658Z" fill="white"/>
<path d="M100.932 35.0644C100.932 37.186 100.344 38.863 99.1667 40.0941C98.1147 41.19 96.8067 41.7373 95.2453 41.7373C93.56 41.7373 92.3493 41.1471 91.6133 39.9667H91.56V46.5382H88.7173V33.0871C88.7173 31.7533 88.6813 30.3844 88.612 28.9804H91.112L91.2707 30.9577H91.324C92.2707 29.4679 93.7093 28.7243 95.6413 28.7243C97.1493 28.7243 98.4093 29.3054 99.42 30.4689C100.427 31.6337 100.932 33.1651 100.932 35.0644ZM98.036 35.1658C98.036 33.9516 97.7547 32.9506 97.192 32.1628C96.5773 31.3412 95.7547 30.9304 94.7187 30.9304C94.016 30.9304 93.38 31.1592 92.8093 31.6103C92.2387 32.0653 91.8667 32.6594 91.692 33.3952C91.6053 33.7384 91.56 34.0192 91.56 34.2402V36.3202C91.56 37.2276 91.8453 37.9933 92.4133 38.6186C92.984 39.2426 93.7253 39.5559 94.64 39.5559C95.7107 39.5559 96.544 39.1529 97.14 38.3495C97.7373 37.5448 98.036 36.484 98.036 35.1658Z" fill="white"/>
<path d="M117.385 36.6036C117.385 38.0752 116.861 39.2725 115.809 40.1968C114.653 41.2069 113.044 41.7113 110.976 41.7113C109.067 41.7113 107.536 41.3525 106.377 40.6336L107.036 38.3235C108.284 39.0593 109.653 39.4285 111.145 39.4285C112.216 39.4285 113.049 39.1919 113.648 38.7213C114.244 38.2507 114.541 37.6189 114.541 36.8311C114.541 36.1291 114.296 35.5376 113.804 35.0579C113.315 34.5782 112.497 34.1323 111.356 33.7202C108.249 32.5905 106.697 30.9356 106.697 28.7594C106.697 27.3372 107.241 26.1711 108.331 25.2637C109.416 24.355 110.864 23.9013 112.675 23.9013C114.289 23.9013 115.631 24.1756 116.701 24.7229L115.991 26.9823C114.991 26.4519 113.86 26.1867 112.595 26.1867C111.595 26.1867 110.813 26.4272 110.253 26.9056C109.78 27.3333 109.543 27.8546 109.543 28.4721C109.543 29.1559 109.813 29.7214 110.357 30.166C110.831 30.5768 111.691 31.0214 112.939 31.5011C114.465 32.1004 115.587 32.8011 116.308 33.6045C117.027 34.4053 117.385 35.4076 117.385 36.6036Z" fill="white"/>
<path d="M126.784 31.0604H123.651V37.1171C123.651 38.6576 124.203 39.4272 125.309 39.4272C125.817 39.4272 126.239 39.3843 126.572 39.2985L126.651 41.4032C126.091 41.6073 125.353 41.71 124.44 41.71C123.317 41.71 122.44 41.3759 121.807 40.709C121.176 40.0408 120.859 38.9202 120.859 37.3459V31.0578H118.992V28.9778H120.859V26.6937L123.651 25.8721V28.9778H126.784V31.0604Z" fill="white"/>
<path d="M140.921 35.1151C140.921 37.0326 140.359 38.6069 139.236 39.838C138.059 41.1055 136.496 41.7373 134.548 41.7373C132.671 41.7373 131.176 41.1302 130.061 39.916C128.947 38.7018 128.389 37.1691 128.389 35.3218C128.389 33.3887 128.963 31.8053 130.113 30.5742C131.261 29.3418 132.811 28.7256 134.759 28.7256C136.636 28.7256 138.147 29.3327 139.287 30.5482C140.377 31.7273 140.921 33.2496 140.921 35.1151ZM137.972 35.2048C137.972 34.0543 137.72 33.0676 137.209 32.2447C136.613 31.2489 135.761 30.7523 134.657 30.7523C133.515 30.7523 132.647 31.2502 132.051 32.2447C131.54 33.0689 131.288 34.0712 131.288 35.2568C131.288 36.4073 131.54 37.394 132.051 38.2156C132.665 39.2114 133.524 39.708 134.632 39.708C135.717 39.708 136.569 39.201 137.184 38.1896C137.708 37.3511 137.972 36.354 137.972 35.2048Z" fill="white"/>
<path d="M150.161 31.4179C149.88 31.3672 149.58 31.3412 149.265 31.3412C148.265 31.3412 147.492 31.7091 146.948 32.4462C146.475 33.0962 146.237 33.9178 146.237 34.9097V41.4552H143.396L143.423 32.909C143.423 31.4712 143.387 30.1621 143.316 28.9817H145.792L145.896 31.3685H145.975C146.275 30.5482 146.748 29.8878 147.396 29.3925C148.029 28.9466 148.713 28.7243 149.451 28.7243C149.713 28.7243 149.951 28.7425 150.161 28.775V31.4179Z" fill="white"/>
<path d="M162.875 34.6276C162.875 35.1242 162.841 35.5428 162.771 35.8847H154.243C154.276 37.1171 154.688 38.0596 155.48 38.7096C156.199 39.2907 157.128 39.5819 158.269 39.5819C159.532 39.5819 160.684 39.3856 161.72 38.9917L162.165 40.9157C160.955 41.4305 159.525 41.6866 157.876 41.6866C155.892 41.6866 154.335 41.1172 153.201 39.9797C152.071 38.8422 151.504 37.3147 151.504 35.3985C151.504 33.5174 152.031 31.9509 153.085 30.7016C154.189 29.3678 155.681 28.7009 157.559 28.7009C159.403 28.7009 160.799 29.3678 161.747 30.7016C162.497 31.7611 162.875 33.0715 162.875 34.6276ZM160.164 33.9087C160.183 33.0871 159.997 32.3773 159.612 31.778C159.12 31.0071 158.364 30.6223 157.347 30.6223C156.417 30.6223 155.661 30.998 155.084 31.752C154.611 32.3513 154.329 33.0702 154.243 33.9074H160.164V33.9087Z" fill="white"/>
<path d="M65.4 13.5117C65.4 15.0418 64.9294 16.1936 63.9894 16.9671C63.1187 17.6808 61.8814 18.0383 60.2787 18.0383C59.484 18.0383 58.804 18.0045 58.2347 17.9369V9.57661C58.9773 9.45961 59.7773 9.39981 60.6413 9.39981C62.168 9.39981 63.3187 9.72351 64.0947 10.3709C64.964 11.1028 65.4 12.1493 65.4 13.5117ZM63.9267 13.5494C63.9267 12.5575 63.6574 11.797 63.1187 11.2666C62.58 10.7375 61.7934 10.4723 60.7574 10.4723C60.3174 10.4723 59.9427 10.5009 59.632 10.5607V16.9164C59.804 16.9424 60.1187 16.9541 60.576 16.9541C61.6454 16.9541 62.4707 16.6642 63.052 16.0844C63.6334 15.5046 63.9267 14.6596 63.9267 13.5494Z" fill="white"/>
<path d="M73.212 14.8481C73.212 15.7906 72.936 16.5628 72.384 17.1686C71.8054 17.7913 71.0387 18.102 70.0814 18.102C69.1587 18.102 68.424 17.8043 67.876 17.2063C67.3294 16.6096 67.056 15.8569 67.056 14.9495C67.056 14.0005 67.3374 13.2218 67.9027 12.6173C68.468 12.0128 69.228 11.7099 70.1854 11.7099C71.108 11.7099 71.8494 12.0076 72.4107 12.6043C72.944 13.1841 73.212 13.9329 73.212 14.8481ZM71.7627 14.8923C71.7627 14.3268 71.6374 13.8419 71.388 13.4376C71.0947 12.9488 70.6774 12.7044 70.1347 12.7044C69.5734 12.7044 69.1467 12.9488 68.8534 13.4376C68.6027 13.8419 68.4787 14.3346 68.4787 14.917C68.4787 15.4825 68.604 15.9674 68.8534 16.3717C69.156 16.8605 69.5774 17.1049 70.1214 17.1049C70.6547 17.1049 71.0734 16.8566 71.3747 16.3587C71.6334 15.9466 71.7627 15.4578 71.7627 14.8923Z" fill="white"/>
<path d="M83.6867 11.8347L81.72 17.9629H80.44L79.6253 15.3018C79.4187 14.6375 79.2507 13.9771 79.12 13.3219H79.0947C78.9733 13.9953 78.8053 14.6544 78.5893 15.3018L77.724 17.9629H76.4293L74.58 11.8347H76.016L76.7267 14.748C76.8987 15.437 77.04 16.0935 77.1533 16.7149H77.1787C77.2827 16.2027 77.4547 15.5501 77.6973 14.761L78.5893 11.836H79.728L80.5827 14.6986C80.7893 15.3967 80.9573 16.0688 81.0867 16.7162H81.1253C81.22 16.0857 81.3627 15.4136 81.552 14.6986L82.3147 11.836H83.6867V11.8347Z" fill="white"/>
<path d="M90.9307 17.9629H89.5333V14.4529C89.5333 13.3713 89.112 12.8305 88.2667 12.8305C87.852 12.8305 87.5173 12.9787 87.2574 13.2764C87 13.5741 86.8694 13.9251 86.8694 14.3268V17.9616H85.472V13.5858C85.472 13.0476 85.4547 12.4639 85.4214 11.8321H86.6494L86.7147 12.7902H86.7534C86.916 12.4925 87.1587 12.2468 87.4774 12.0505C87.856 11.8217 88.28 11.706 88.744 11.706C89.3307 11.706 89.8187 11.8906 90.2067 12.2611C90.6893 12.7148 90.9307 13.3921 90.9307 14.2917V17.9629V17.9629Z" fill="white"/>
<path d="M94.784 17.9629H93.388V9.02281H94.784V17.9629Z" fill="white"/>
<path d="M103.011 14.8481C103.011 15.7906 102.735 16.5628 102.183 17.1686C101.604 17.7913 100.836 18.102 99.88 18.102C98.956 18.102 98.2213 17.8043 97.6747 17.2063C97.128 16.6096 96.8547 15.8569 96.8547 14.9495C96.8547 14.0005 97.136 13.2218 97.7013 12.6173C98.2667 12.0128 99.0267 11.7099 99.9827 11.7099C100.907 11.7099 101.647 12.0076 102.209 12.6043C102.743 13.1841 103.011 13.9329 103.011 14.8481ZM101.56 14.8923C101.56 14.3268 101.435 13.8419 101.185 13.4376C100.893 12.9488 100.475 12.7044 99.9333 12.7044C99.3707 12.7044 98.944 12.9488 98.652 13.4376C98.4013 13.8419 98.2773 14.3346 98.2773 14.917C98.2773 15.4825 98.4027 15.9674 98.652 16.3717C98.9547 16.8605 99.376 17.1049 99.92 17.1049C100.453 17.1049 100.871 16.8566 101.172 16.3587C101.432 15.9466 101.56 15.4578 101.56 14.8923Z" fill="white"/>
<path d="M109.773 17.9629H108.519L108.415 17.257H108.376C107.947 17.8199 107.335 18.102 106.54 18.102C105.947 18.102 105.467 17.9161 105.105 17.5469C104.777 17.2115 104.613 16.7942 104.613 16.2989C104.613 15.5501 104.933 14.9794 105.577 14.5842C106.22 14.189 107.124 13.9953 108.288 14.0044V13.89C108.288 13.0827 107.853 12.6797 106.983 12.6797C106.363 12.6797 105.816 12.8318 105.344 13.1334L105.06 12.239C105.644 11.8867 106.365 11.7099 107.216 11.7099C108.859 11.7099 109.683 12.5549 109.683 14.2449V16.5017C109.683 17.114 109.713 17.6015 109.773 17.9629ZM108.323 15.8569V14.9118C106.781 14.8858 106.011 15.2979 106.011 16.1468C106.011 16.4666 106.099 16.7058 106.279 16.8657C106.459 17.0256 106.688 17.1049 106.961 17.1049C107.268 17.1049 107.555 17.01 107.816 16.8215C108.079 16.6317 108.24 16.3912 108.3 16.0961C108.315 16.0298 108.323 15.9492 108.323 15.8569Z" fill="white"/>
<path d="M117.713 17.9629H116.473L116.408 16.9788H116.369C115.973 17.7276 115.299 18.102 114.351 18.102C113.593 18.102 112.963 17.8121 112.463 17.2323C111.963 16.6525 111.713 15.8998 111.713 14.9755C111.713 13.9836 111.984 13.1802 112.528 12.5666C113.055 11.9946 113.7 11.7086 114.468 11.7086C115.312 11.7086 115.903 11.9855 116.239 12.5406H116.265V9.02281H117.664V16.3119C117.664 16.9086 117.68 17.4585 117.713 17.9629ZM116.265 15.3785V14.3567C116.265 14.1799 116.252 14.0369 116.227 13.9277C116.148 13.6001 115.979 13.3245 115.721 13.1022C115.461 12.8799 115.148 12.7681 114.787 12.7681C114.265 12.7681 113.857 12.9696 113.557 13.3739C113.26 13.7782 113.109 14.2943 113.109 14.9248C113.109 15.5306 113.252 16.022 113.539 16.4003C113.841 16.8033 114.249 17.0048 114.76 17.0048C115.219 17.0048 115.585 16.8371 115.864 16.5004C116.133 16.1897 116.265 15.8153 116.265 15.3785Z" fill="white"/>
<path d="M129.664 14.8481C129.664 15.7906 129.388 16.5628 128.836 17.1686C128.257 17.7913 127.492 18.102 126.533 18.102C125.612 18.102 124.877 17.8043 124.328 17.2063C123.781 16.6096 123.508 15.8569 123.508 14.9495C123.508 14.0005 123.789 13.2218 124.355 12.6173C124.92 12.0128 125.68 11.7099 126.639 11.7099C127.56 11.7099 128.303 12.0076 128.863 12.6043C129.396 13.1841 129.664 13.9329 129.664 14.8481ZM128.216 14.8923C128.216 14.3268 128.091 13.8419 127.841 13.4376C127.547 12.9488 127.131 12.7044 126.587 12.7044C126.027 12.7044 125.6 12.9488 125.305 13.4376C125.055 13.8419 124.931 14.3346 124.931 14.917C124.931 15.4825 125.056 15.9674 125.305 16.3717C125.608 16.8605 126.029 17.1049 126.573 17.1049C127.107 17.1049 127.527 16.8566 127.828 16.3587C128.085 15.9466 128.216 15.4578 128.216 14.8923Z" fill="white"/>
<path d="M137.177 17.9629H135.781V14.4529C135.781 13.3713 135.36 12.8305 134.513 12.8305C134.099 12.8305 133.764 12.9787 133.505 13.2764C133.247 13.5741 133.117 13.9251 133.117 14.3268V17.9616H131.719V13.5858C131.719 13.0476 131.703 12.4639 131.669 11.8321H132.896L132.961 12.7902H133C133.164 12.4925 133.407 12.2468 133.724 12.0505C134.104 11.8217 134.527 11.706 134.992 11.706C135.577 11.706 136.065 11.8906 136.453 12.2611C136.937 12.7148 137.177 13.3921 137.177 14.2917V17.9629V17.9629Z" fill="white"/>
<path d="M146.581 12.8552H145.043V15.8322C145.043 16.5888 145.316 16.9671 145.857 16.9671C146.108 16.9671 146.316 16.9463 146.48 16.9034L146.516 17.9369C146.24 18.0383 145.877 18.089 145.431 18.089C144.879 18.089 144.449 17.9252 144.139 17.5976C143.827 17.27 143.672 16.7188 143.672 15.9453V12.8552H142.753V11.8347H143.672V10.7115L145.041 10.3085V11.8334H146.58V12.8552H146.581Z" fill="white"/>
<path d="M153.979 17.9629H152.58V14.4789C152.58 13.3804 152.159 12.8305 151.315 12.8305C150.667 12.8305 150.224 13.149 149.981 13.786C149.94 13.9199 149.916 14.0837 149.916 14.2761V17.9616H148.52V9.02281H149.916V12.7161H149.943C150.383 12.044 151.013 11.7086 151.831 11.7086C152.409 11.7086 152.888 11.8932 153.268 12.2637C153.741 12.7252 153.979 13.4116 153.979 14.319V17.9629V17.9629Z" fill="white"/>
<path d="M161.609 14.6089C161.609 14.8533 161.591 15.0587 161.557 15.2264H157.367C157.385 15.8322 157.585 16.2937 157.973 16.6135C158.328 16.8995 158.785 17.0425 159.345 17.0425C159.965 17.0425 160.531 16.9463 161.04 16.7526L161.259 17.699C160.663 17.9512 159.961 18.0773 159.149 18.0773C158.176 18.0773 157.409 17.7978 156.855 17.2388C156.297 16.6798 156.021 15.9297 156.021 14.9885C156.021 14.0642 156.279 13.2946 156.797 12.681C157.339 12.0258 158.071 11.6982 158.995 11.6982C159.899 11.6982 160.585 12.0258 161.049 12.681C161.424 13.201 161.609 13.8445 161.609 14.6089ZM160.276 14.2566C160.287 13.8523 160.195 13.5039 160.005 13.2101C159.763 12.8318 159.393 12.642 158.893 12.642C158.437 12.642 158.065 12.8266 157.781 13.1971C157.549 13.4922 157.412 13.8445 157.367 14.2566H160.276Z" fill="white"/>
</svg>
