<svg width="49" height="48" viewBox="0 0 49 48" fill="none" xmlns="http://www.w3.org/2000/svg">
<g clip-path="url(#clip0_2104_1556)">
<path d="M34.5 6H42.5C43.0304 6 43.5391 6.21071 43.9142 6.58579C44.2893 6.96086 44.5 7.46957 44.5 8V40C44.5 40.5304 44.2893 41.0391 43.9142 41.4142C43.5391 41.7893 43.0304 42 42.5 42H6.5C5.96957 42 5.46086 41.7893 5.08579 41.4142C4.71071 41.0391 4.5 40.5304 4.5 40V8C4.5 7.46957 4.71071 6.96086 5.08579 6.58579C5.46086 6.21071 5.96957 6 6.5 6H14.5V2H18.5V6H30.5V2H34.5V6ZM40.5 22H8.5V38H40.5V22ZM30.5 10H18.5V14H14.5V10H8.5V18H40.5V10H34.5V14H30.5V10ZM12.5 26H16.5V30H12.5V26ZM22.5 26H26.5V30H22.5V26ZM32.5 26H36.5V30H32.5V26Z" fill="#62658E"/>
</g>
<defs>
<clipPath id="clip0_2104_1556">
<rect width="48" height="48" fill="white" transform="translate(0.5)"/>
</clipPath>
</defs>
</svg>
