<svg width="51" height="48" viewBox="0 0 51 48" fill="none" xmlns="http://www.w3.org/2000/svg">
<g clip-path="url(#clip0_2107_1029)">
<path d="M40.1087 44H10.8913C9.23083 44 7.63835 43.3679 6.46421 42.2426C5.29007 41.1174 4.63045 39.5913 4.63045 38V6C4.63045 5.46957 4.85032 4.96086 5.2417 4.58579C5.63308 4.21071 6.16391 4 6.7174 4H35.9348C36.4883 4 37.0191 4.21071 37.4105 4.58579C37.8019 4.96086 38.0218 5.46957 38.0218 6V30H46.3696V38C46.3696 39.5913 45.71 41.1174 44.5358 42.2426C43.3617 43.3679 41.7692 44 40.1087 44ZM38.0218 34V38C38.0218 38.5304 38.2416 39.0391 38.633 39.4142C39.0244 39.7893 39.5552 40 40.1087 40C40.6622 40 41.193 39.7893 41.5844 39.4142C41.9758 39.0391 42.1957 38.5304 42.1957 38V34H38.0218ZM33.8478 40V8H8.80436V38C8.80436 38.5304 9.02424 39.0391 9.41562 39.4142C9.807 39.7893 10.3378 40 10.8913 40H33.8478ZM12.9783 14H29.6739V18H12.9783V14ZM12.9783 22H29.6739V26H12.9783V22ZM12.9783 30H23.4131V34H12.9783V30Z" fill="#62658E"/>
</g>
<defs>
<clipPath id="clip0_2107_1029">
<rect width="50.087" height="48" fill="white" transform="translate(0.456528)"/>
</clipPath>
</defs>
</svg>
