<svg width="180" height="53" viewBox="0 0 180 53" fill="none" xmlns="http://www.w3.org/2000/svg">
<g clip-path="url(#clip0_2129_456)">
<path d="M173.333 53L6.66667 53C3.00167 53 -1.22634e-08 50.0171 -2.72369e-08 46.375L-1.90659e-07 6.625C-2.05632e-07 2.98291 3.00167 4.37877e-07 6.66667 4.36589e-07L173.333 3.77976e-07C176.998 3.76687e-07 180 2.98291 180 6.625L180 46.375C180 50.0171 176.998 53 173.333 53Z" fill="black"/>
<path d="M173.333 1.06165C176.42 1.06165 178.932 3.55762 178.932 6.625L178.932 46.375C178.932 49.4424 176.42 51.9383 173.333 51.9383L6.66667 51.9383C3.58 51.9383 1.06833 49.4424 1.06833 46.375L1.06833 6.625C1.06833 3.55762 3.58 1.06165 6.66667 1.06165L173.333 1.06165ZM173.333 3.77976e-07L6.66667 4.36589e-07C3.00167 4.37877e-07 -2.05632e-07 2.98291 -1.90659e-07 6.625L-2.72369e-08 46.375C-1.22634e-08 50.0171 3.00167 53 6.66667 53L173.333 53C176.998 53 180 50.0171 180 46.375L180 6.625C180 2.98291 176.998 3.76687e-07 173.333 3.77976e-07Z" fill="#A6A6A6"/>
<path d="M63.2233 13.573C63.2233 14.6793 62.89 15.5654 62.2333 16.2263C61.4783 17.0097 60.495 17.4039 59.29 17.4039C58.1383 17.4039 57.155 17.0031 56.3483 16.213C55.54 15.4114 55.1367 14.4276 55.1367 13.25C55.1367 12.0724 55.54 11.0886 56.3483 10.2936C57.155 9.49693 58.1383 9.09612 59.29 9.09612C59.8633 9.09612 60.41 9.21371 60.9317 9.43233C61.4517 9.65262 61.875 9.95074 62.1817 10.3184L61.485 11.0174C60.95 10.3896 60.2217 10.0799 59.29 10.0799C58.45 10.0799 57.7217 10.3714 57.1033 10.9594C56.4917 11.549 56.185 12.3126 56.185 13.25C56.185 14.1874 56.4917 14.9576 57.1033 15.5472C57.7217 16.1286 58.45 16.4267 59.29 16.4267C60.1817 16.4267 60.9317 16.1286 61.5233 15.5406C61.9133 15.1514 62.135 14.6147 62.1933 13.9291L59.29 13.9291L59.29 12.9717L63.1633 12.9717C63.21 13.1788 63.2233 13.3792 63.2233 13.573Z" fill="white" stroke="white" stroke-width="0.16" stroke-miterlimit="10"/>
<path d="M69.3683 10.2538L65.73 10.2538L65.73 12.7713L69.01 12.7713L69.01 13.7286L65.73 13.7286L65.73 16.2461L69.3683 16.2461L69.3683 17.2217L64.7 17.2217L64.7 9.2783L69.3683 9.2783L69.3683 10.2538Z" fill="white" stroke="white" stroke-width="0.16" stroke-miterlimit="10"/>
<path d="M73.705 17.2217L72.675 17.2217L72.675 10.2538L70.4433 10.2538L70.4433 9.2783L75.9383 9.2783L75.9383 10.2538L73.705 10.2538L73.705 17.2217Z" fill="white" stroke="white" stroke-width="0.16" stroke-miterlimit="10"/>
<path d="M79.915 17.2217L79.915 9.2783L80.9433 9.2783L80.9433 17.2217L79.915 17.2217Z" fill="white" stroke="white" stroke-width="0.16" stroke-miterlimit="10"/>
<path d="M85.5016 17.2217L84.48 17.2217L84.48 10.2538L82.24 10.2538L82.24 9.2783L87.7416 9.2783L87.7416 10.2538L85.5016 10.2538L85.5016 17.2217Z" fill="white" stroke="white" stroke-width="0.16" stroke-miterlimit="10"/>
<path d="M98.145 16.1998C97.3567 17.0031 96.38 17.4039 95.215 17.4039C94.0433 17.4039 93.0667 17.0031 92.2783 16.1998C91.4917 15.3981 91.1 14.4143 91.1 13.25C91.1 12.0856 91.4917 11.1018 92.2783 10.3002C93.0667 9.49693 94.0433 9.09612 95.215 9.09612C96.3733 9.09612 97.35 9.49693 98.1383 10.3068C98.9317 11.1151 99.3233 12.0923 99.3233 13.25C99.3233 14.4143 98.9317 15.3981 98.145 16.1998ZM93.04 15.534C93.6333 16.1286 94.355 16.4267 95.215 16.4267C96.0683 16.4267 96.7967 16.1286 97.3833 15.534C97.975 14.9394 98.275 14.1758 98.275 13.25C98.275 12.3241 97.975 11.5606 97.3833 10.966C96.7967 10.3714 96.0683 10.0733 95.215 10.0733C94.355 10.0733 93.6333 10.3714 93.04 10.966C92.4483 11.5606 92.1483 12.3241 92.1483 13.25C92.1483 14.1758 92.4483 14.9394 93.04 15.534Z" fill="white" stroke="white" stroke-width="0.16" stroke-miterlimit="10"/>
<path d="M100.768 17.2217L100.768 9.2783L102.018 9.2783L105.905 15.4561L105.95 15.4561L105.905 13.929L105.905 9.2783L106.933 9.2783L106.933 17.2217L105.86 17.2217L101.79 10.7391L101.745 10.7391L101.79 12.2728L101.79 17.2217L100.768 17.2217Z" fill="white" stroke="white" stroke-width="0.16" stroke-miterlimit="10"/>
<path d="M90.8466 28.8221C87.715 28.8221 85.1566 31.1905 85.1566 34.4583C85.1566 37.6996 87.715 40.0929 90.8466 40.0929C93.985 40.0929 96.5433 37.6996 96.5433 34.4583C96.5433 31.1905 93.985 28.8221 90.8466 28.8221ZM90.8466 37.8735C89.1283 37.8735 87.65 36.464 87.65 34.4583C87.65 32.4261 89.1283 31.0415 90.8466 31.0415C92.565 31.0415 94.05 32.4261 94.05 34.4583C94.05 36.464 92.565 37.8735 90.8466 37.8735ZM78.4316 28.8221C75.2933 28.8221 72.7416 31.1905 72.7416 34.4583C72.7416 37.6996 75.2933 40.0929 78.4316 40.0929C81.5683 40.0929 84.1216 37.6996 84.1216 34.4583C84.1216 31.1905 81.5683 28.8221 78.4316 28.8221ZM78.4316 37.8735C76.7116 37.8735 75.2283 36.464 75.2283 34.4583C75.2283 32.4261 76.7116 31.0415 78.4316 31.0415C80.15 31.0415 81.6283 32.4261 81.6283 34.4583C81.6283 36.464 80.15 37.8735 78.4316 37.8735ZM63.6583 30.5496L63.6583 32.9445L69.4133 32.9445C69.245 34.2827 68.795 35.2666 68.105 35.9522C67.265 36.7804 65.9566 37.6996 63.6583 37.6996C60.1166 37.6996 57.3433 34.8591 57.3433 31.3396C57.3433 27.8201 60.1166 24.9796 63.6583 24.9796C65.5733 24.9796 66.9666 25.7232 67.995 26.6872L69.6933 24.9995C68.255 23.6347 66.3416 22.5863 63.6583 22.5863C58.8016 22.5863 54.72 26.5133 54.72 31.3396C54.72 36.1659 58.8016 40.0929 63.6583 40.0929C66.2833 40.0929 68.255 39.2382 69.805 37.635C71.3933 36.0566 71.8883 33.8372 71.8883 32.0451C71.8883 31.4886 71.8416 30.9769 71.7583 30.5496L63.6583 30.5496ZM124.068 32.4062C123.6 31.1458 122.155 28.8221 119.212 28.8221C116.295 28.8221 113.867 31.1061 113.867 34.4583C113.867 37.6151 116.27 40.0929 119.492 40.0929C122.097 40.0929 123.6 38.5145 124.218 37.5952L122.285 36.315C121.64 37.2524 120.762 37.8735 119.492 37.8735C118.23 37.8735 117.325 37.2988 116.745 36.1659L124.33 33.0472L124.068 32.4062ZM116.335 34.2827C116.27 32.1097 118.033 30.9967 119.297 30.9967C120.287 30.9967 121.127 31.4886 121.407 32.1926L116.335 34.2827ZM110.17 39.75L112.663 39.75L112.663 23.1875L110.17 23.1875L110.17 39.75ZM106.087 30.0775L106.003 30.0775C105.443 29.4183 104.375 28.8221 103.022 28.8221C100.182 28.8221 97.585 31.2998 97.585 34.4765C97.585 37.635 100.182 40.0929 103.022 40.0929C104.375 40.0929 105.443 39.4916 106.003 38.8126L106.087 38.8126L106.087 39.6208C106.087 41.7756 104.928 42.9333 103.06 42.9333C101.537 42.9333 100.592 41.8402 100.202 40.921L98.0333 41.8203C98.6583 43.3143 100.313 45.1527 103.06 45.1527C105.983 45.1527 108.45 43.4435 108.45 39.2846L108.45 29.1649L106.087 29.1649L106.087 30.0775ZM103.235 37.8735C101.517 37.8735 100.078 36.4441 100.078 34.4765C100.078 32.4907 101.517 31.0415 103.235 31.0415C104.928 31.0415 106.263 32.4907 106.263 34.4765C106.263 36.4441 104.928 37.8735 103.235 37.8735ZM135.742 23.1875L129.778 23.1875L129.778 39.75L132.265 39.75L132.265 33.4745L135.742 33.4745C138.503 33.4745 141.212 31.4886 141.212 28.3302C141.212 25.1734 138.497 23.1875 135.742 23.1875ZM135.807 31.1706L132.265 31.1706L132.265 25.4914L135.807 25.4914C137.663 25.4914 138.723 27.0234 138.723 28.3302C138.723 29.6121 137.663 31.1706 135.807 31.1706ZM151.178 28.7906C149.382 28.7906 147.513 29.579 146.745 31.3263L148.952 32.2456C149.427 31.3263 150.3 31.0282 151.223 31.0282C152.513 31.0282 153.822 31.7984 153.842 33.1582L153.842 33.3321C153.392 33.0737 152.428 32.6911 151.243 32.6911C148.867 32.6911 146.445 33.9912 146.445 36.4177C146.445 38.637 148.392 40.0664 150.58 40.0664C152.253 40.0664 153.177 39.3161 153.757 38.4432L153.842 38.4432L153.842 39.7235L156.243 39.7235L156.243 33.3702C156.243 30.4336 154.037 28.7906 151.178 28.7906ZM150.878 37.8669C150.065 37.8669 148.932 37.4661 148.932 36.464C148.932 35.1821 150.345 34.6902 151.568 34.6902C152.663 34.6902 153.177 34.9303 153.842 35.2467C153.647 36.7804 152.318 37.8669 150.878 37.8669ZM164.993 29.1533L162.135 36.3332L162.05 36.3332L159.095 29.1533L156.413 29.1533L160.853 39.1869L158.32 44.7701L160.918 44.7701L167.76 29.1533L164.993 29.1533ZM142.578 39.75L145.072 39.75L145.072 23.1875L142.578 23.1875L142.578 39.75Z" fill="white"/>
<path d="M13.9133 9.98883C13.5217 10.3963 13.295 11.0306 13.295 11.8521L13.295 41.1545C13.295 41.976 13.5217 42.6103 13.9133 43.0178L14.01 43.1072L30.5333 26.6938L30.5333 26.3062L14.01 9.89277L13.9133 9.98883Z" fill="url(#paint0_linear_2129_456)"/>
<path d="M36.035 32.1677L30.5333 26.6938L30.5333 26.3062L36.0416 20.8323L36.165 20.9035L42.6883 24.592C44.55 25.6387 44.55 27.3612 42.6883 28.4146L36.165 32.0964L36.035 32.1677Z" fill="url(#paint1_linear_2129_456)"/>
<path d="M36.165 32.0965L30.5333 26.5L13.9133 43.0178C14.5317 43.6637 15.54 43.7416 16.6867 43.0956L36.165 32.0965Z" fill="url(#paint2_linear_2129_456)"/>
<path d="M36.165 20.9035L16.6867 9.90438C15.54 9.26506 14.5317 9.34291 13.9133 9.98884L30.5333 26.5L36.165 20.9035Z" fill="url(#paint3_linear_2129_456)"/>
</g>
<defs>
<linearGradient id="paint0_linear_2129_456" x1="29.0663" y1="41.4596" x2="6.83001" y2="19.0836" gradientUnits="userSpaceOnUse">
<stop stop-color="#00A0FF"/>
<stop offset="0.0066" stop-color="#00A1FF"/>
<stop offset="0.2601" stop-color="#00BEFF"/>
<stop offset="0.5122" stop-color="#00D2FF"/>
<stop offset="0.7604" stop-color="#00DFFF"/>
<stop offset="1" stop-color="#00E3FF"/>
</linearGradient>
<linearGradient id="paint1_linear_2129_456" x1="45.1125" y1="26.4981" x2="12.85" y2="26.4981" gradientUnits="userSpaceOnUse">
<stop stop-color="#FFE000"/>
<stop offset="0.4087" stop-color="#FFBD00"/>
<stop offset="0.7754" stop-color="#FFA500"/>
<stop offset="1" stop-color="#FF9C00"/>
</linearGradient>
<linearGradient id="paint2_linear_2129_456" x1="33.1027" y1="23.4577" x2="2.94851" y2="-6.88613" gradientUnits="userSpaceOnUse">
<stop stop-color="#FF3A44"/>
<stop offset="1" stop-color="#C31162"/>
</linearGradient>
<linearGradient id="paint3_linear_2129_456" x1="9.72973" y1="52.7665" x2="23.1949" y2="39.2168" gradientUnits="userSpaceOnUse">
<stop stop-color="#32A071"/>
<stop offset="0.0685" stop-color="#2DA771"/>
<stop offset="0.4762" stop-color="#15CF74"/>
<stop offset="0.8009" stop-color="#06E775"/>
<stop offset="1" stop-color="#00F076"/>
</linearGradient>
<clipPath id="clip0_2129_456">
<rect width="144" height="42.4" fill="white" transform="matrix(1.25 -4.39593e-10 -5.13905e-09 -1.25 0 53)"/>
</clipPath>
</defs>
</svg>
