<svg width="51" height="50" viewBox="0 0 51 50" fill="none" xmlns="http://www.w3.org/2000/svg">
<path d="M39.0417 0H11.9583C8.92041 0.00330869 6.00786 1.21159 3.85972 3.35972C1.71159 5.50786 0.503309 8.42041 0.5 11.4583L0.5 28.125C0.503309 31.1629 1.71159 34.0755 3.85972 36.2236C6.00786 38.3717 8.92041 39.58 11.9583 39.5833H22.375V43.75H16.125C15.2962 43.75 14.5013 44.0792 13.9153 44.6653C13.3292 45.2513 13 46.0462 13 46.875C13 47.7038 13.3292 48.4987 13.9153 49.0847C14.5013 49.6708 15.2962 50 16.125 50H34.875C35.7038 50 36.4987 49.6708 37.0847 49.0847C37.6708 48.4987 38 47.7038 38 46.875C38 46.0462 37.6708 45.2513 37.0847 44.6653C36.4987 44.0792 35.7038 43.75 34.875 43.75H28.625V39.5833H39.0417C42.0796 39.58 44.9921 38.3717 47.1403 36.2236C49.2884 34.0755 50.4967 31.1629 50.5 28.125V11.4583C50.4967 8.42041 49.2884 5.50786 47.1403 3.35972C44.9921 1.21159 42.0796 0.00330869 39.0417 0V0ZM44.25 28.125C44.25 29.5063 43.7013 30.8311 42.7245 31.8078C41.7478 32.7846 40.423 33.3333 39.0417 33.3333H11.9583C10.577 33.3333 9.25224 32.7846 8.27549 31.8078C7.29873 30.8311 6.75 29.5063 6.75 28.125V11.4583C6.75 10.077 7.29873 8.75224 8.27549 7.77549C9.25224 6.79873 10.577 6.25 11.9583 6.25H39.0417C40.423 6.25 41.7478 6.79873 42.7245 7.77549C43.7013 8.75224 44.25 10.077 44.25 11.4583V28.125ZM40.0833 19.7917C40.0833 20.6205 39.7541 21.4153 39.168 22.0014C38.582 22.5874 37.7871 22.9167 36.9583 22.9167H34.4583L31.2187 27.775C30.934 28.2022 30.5484 28.5526 30.096 28.7953C29.6436 29.0381 29.1384 29.1656 28.625 29.1667C28.5597 29.1667 28.4951 29.1667 28.4312 29.1667C27.8848 29.1329 27.3568 28.9562 26.9001 28.6542C26.4434 28.3522 26.0741 27.9355 25.8292 27.4458L21.9875 19.7562L20.8083 21.525C20.523 21.9531 20.1364 22.304 19.6828 22.5468C19.2293 22.7896 18.7228 22.9166 18.2083 22.9167H14.0417C13.2129 22.9167 12.418 22.5874 11.832 22.0014C11.2459 21.4153 10.9167 20.6205 10.9167 19.7917C10.9167 18.9629 11.2459 18.168 11.832 17.582C12.418 16.9959 13.2129 16.6667 14.0417 16.6667H16.5417L19.775 11.8083C20.0786 11.3527 20.4965 10.9849 20.9869 10.7416C21.4774 10.4983 22.0231 10.3881 22.5695 10.4221C23.1159 10.456 23.6438 10.633 24.1004 10.9351C24.5569 11.2373 24.926 11.6541 25.1708 12.1437L29.0125 19.8271L30.1917 18.0583C30.477 17.6303 30.8636 17.2793 31.3172 17.0365C31.7707 16.7937 32.2772 16.6667 32.7917 16.6667H36.9583C37.3687 16.6667 37.7751 16.7475 38.1542 16.9045C38.5334 17.0616 38.8779 17.2918 39.168 17.582C39.4582 17.8721 39.6884 18.2166 39.8455 18.5958C40.0025 18.9749 40.0833 19.3813 40.0833 19.7917Z" fill="#62658E"/>
</svg>
