<svg width="51" height="50" viewBox="0 0 51 50" fill="none" xmlns="http://www.w3.org/2000/svg">
<g clip-path="url(#clip0_2107_1043)">
<path d="M9.67917 30.2562L16.7667 23.1687L22.6583 29.0625L29.2354 22.4854L25.5 18.75H35.9167V29.1666L32.1813 25.4312L22.6583 34.9541L16.7667 29.0625L11.6104 34.2166C13.9509 37.7393 17.543 40.2404 21.6588 41.2132C25.7747 42.186 30.1064 41.5577 33.7763 39.4556C37.4461 37.3535 40.1796 33.9349 41.4228 29.8925C42.666 25.8501 42.3258 21.4862 40.4714 17.6852C38.6169 13.8843 35.3867 10.9304 31.4355 9.42234C27.4843 7.91425 23.1075 7.96469 19.1921 9.56344C15.2766 11.1622 12.1154 14.1897 10.349 18.0324C8.58264 21.8751 8.34318 26.2456 9.67917 30.2583V30.2562ZM6.47501 33.502L6.45417 33.4812L6.46251 33.4729C5.27486 30.8062 4.66293 27.9191 4.66667 25C4.66667 13.4937 13.9938 4.16663 25.5 4.16663C37.0063 4.16663 46.3333 13.4937 46.3333 25C46.3333 36.5062 37.0063 45.8333 25.5 45.8333C17.0208 45.8333 9.72917 40.7708 6.47501 33.502Z" fill="#62658E"/>
</g>
<defs>
<clipPath id="clip0_2107_1043">
<rect width="50" height="50" fill="white" transform="translate(0.5)"/>
</clipPath>
</defs>
</svg>
